<svg id="Layer_1" data-name="Layer 1" xmlns="http://www.w3.org/2000/svg" viewBox="0 0 1000 449.44"><defs><style>.cls-1{fill:#fff;}</style></defs><rect width="1000" height="449.44"/><path class="cls-1" d="M220.5,190.24C211,175.35,199,168.58,181,168.54a71.23,71.23,0,0,0-23.56,4.07A77.35,77.35,0,0,0,136,184a60.22,60.22,0,0,0-15.81,17.72,45.52,45.52,0,0,0,0,45.82,60.45,60.45,0,0,0,16,17.86,78.24,78.24,0,0,0,21.45,11.48,69.07,69.07,0,0,0,23.16,4.06c16.94,0,29.11-6.56,40-20.88,4.05,20.79,11.79,40.14,23.19,55.42l-4,1.37a100.12,100.12,0,0,1-17,4.45,108.38,108.38,0,0,1-17.61,1.36,186.58,186.58,0,0,1-42.9-5.51,207.81,207.81,0,0,1-47.67-17.56C99.13,291.42,85,281,74.06,268.13s-17.15-27.76-17.07-44,6.41-30.95,17.23-43.64,24.91-22.89,40.35-30.85a212.09,212.09,0,0,1,47.63-17.33,189.09,189.09,0,0,1,43.28-5.51,107.09,107.09,0,0,1,20.1,1.73,86.13,86.13,0,0,1,18.12,5.64C232.23,149.66,224.5,169.23,220.5,190.24Z"/><path class="cls-1" d="M310.72,130.71c-2.52,29,9.92,74.72,29.61,116.78,13.95-42.06,37-87.74,61.35-116.78h53.09c-33.34,47.71-71.89,140.31-79.26,188H336.63c-51.34-47.71-89.77-140.31-79-188Z"/><path class="cls-1" d="M474.45,130.71h72.28a115.73,115.73,0,0,1,37.51,6.11A119.46,119.46,0,0,1,618.74,155a97.25,97.25,0,0,1,26.18,30.28,81.07,81.07,0,0,1,.17,78.61A96.6,96.6,0,0,1,619,294.32a117.81,117.81,0,0,1-34.53,18.3,116.48,116.48,0,0,1-37.76,6.11H474.45C470.54,271,470.54,178.42,474.45,130.71Zm50.69,150.94h12.1a71.31,71.31,0,0,0,24.77-4,56.69,56.69,0,0,0,19.14-11.45,51.27,51.27,0,0,0,12.55-18,60.11,60.11,0,0,0,4.51-23.46,58.53,58.53,0,0,0-4.65-23.32,52.54,52.54,0,0,0-12.68-18.11,56.8,56.8,0,0,0-19.15-11.45,70.38,70.38,0,0,0-24.49-4.05h-12.1C526.26,203.12,526.26,246.32,525.14,281.65Z"/><path class="cls-1" d="M661.87,318.73c35.41-47.71,50.93-140.31,31.9-188h48.35c32.3,25.44,57.14,63.63,69.61,101,15.4-37.35,18.83-75.54,5.4-101h48.35c66.59,47.71,82.1,140.31,31.9,188H848.79c25.33-27.46,31.54-69.8,21.11-109.88-12,40.08-41.49,82.42-81.67,109.88H768.78c9.65-27.46,2-69.8-16.69-109.88-3,40.08-17.68,82.42-41.62,109.88Z"/></svg>